<mxfile host="app.diagrams.net" modified="2024-10-30T13:31:06.021Z" agent="Mozilla/5.0 (Windows NT 10.0; Win64; x64) AppleWebKit/537.36 (KHTML, like Gecko) Chrome/130.0.0.0 Safari/537.36" etag="LQZPJ5i6vnFxDR-fpG__" version="21.7.2" type="github">
  <diagram name="第 1 页" id="YCFjjFuQnZs5tZ5DN0bk">
    <mxGraphModel dx="1302" dy="682" grid="1" gridSize="10" guides="1" tooltips="1" connect="1" arrows="1" fold="1" page="1" pageScale="1" pageWidth="827" pageHeight="1169" math="0" shadow="0">
      <root>
        <mxCell id="0" />
        <mxCell id="1" parent="0" />
        <mxCell id="MRyekn-PnXpq59xH3Nlz-1" value="Admin" style="shape=umlLifeline;perimeter=lifelinePerimeter;container=1;collapsible=0;recursiveResize=0;rounded=0;shadow=0;strokeWidth=1;" vertex="1" parent="1">
          <mxGeometry x="210" y="105" width="100" height="550" as="geometry" />
        </mxCell>
        <mxCell id="MRyekn-PnXpq59xH3Nlz-2" value="" style="points=[];perimeter=orthogonalPerimeter;rounded=0;shadow=0;strokeWidth=1;" vertex="1" parent="MRyekn-PnXpq59xH3Nlz-1">
          <mxGeometry x="45" y="70" width="10" height="430" as="geometry" />
        </mxCell>
        <mxCell id="MRyekn-PnXpq59xH3Nlz-3" value="" style="html=1;points=[];perimeter=orthogonalPerimeter;" vertex="1" parent="MRyekn-PnXpq59xH3Nlz-1">
          <mxGeometry x="50" y="429" width="10" height="40" as="geometry" />
        </mxCell>
        <mxCell id="MRyekn-PnXpq59xH3Nlz-4" value="解析文件" style="edgeStyle=orthogonalEdgeStyle;html=1;align=left;spacingLeft=2;endArrow=block;rounded=0;entryX=1;entryY=0;" edge="1" parent="MRyekn-PnXpq59xH3Nlz-1">
          <mxGeometry relative="1" as="geometry">
            <mxPoint x="55" y="410" as="sourcePoint" />
            <Array as="points">
              <mxPoint x="85" y="410" />
            </Array>
            <mxPoint x="60" y="430" as="targetPoint" />
          </mxGeometry>
        </mxCell>
        <mxCell id="MRyekn-PnXpq59xH3Nlz-5" value="" style="html=1;points=[];perimeter=orthogonalPerimeter;" vertex="1" parent="MRyekn-PnXpq59xH3Nlz-1">
          <mxGeometry x="50" y="260" width="10" height="40" as="geometry" />
        </mxCell>
        <mxCell id="MRyekn-PnXpq59xH3Nlz-6" value="接收处理" style="edgeStyle=orthogonalEdgeStyle;html=1;align=left;spacingLeft=2;endArrow=block;rounded=0;entryX=1;entryY=0;" edge="1" parent="MRyekn-PnXpq59xH3Nlz-1" target="MRyekn-PnXpq59xH3Nlz-5">
          <mxGeometry relative="1" as="geometry">
            <mxPoint x="55" y="240" as="sourcePoint" />
            <Array as="points">
              <mxPoint x="85" y="240" />
            </Array>
          </mxGeometry>
        </mxCell>
        <mxCell id="MRyekn-PnXpq59xH3Nlz-7" value="被测 Server" style="shape=umlLifeline;perimeter=lifelinePerimeter;container=1;collapsible=0;recursiveResize=0;rounded=0;shadow=0;strokeWidth=1;" vertex="1" parent="1">
          <mxGeometry x="390" y="105" width="100" height="480" as="geometry" />
        </mxCell>
        <mxCell id="MRyekn-PnXpq59xH3Nlz-8" value="" style="points=[];perimeter=orthogonalPerimeter;rounded=0;shadow=0;strokeWidth=1;" vertex="1" parent="MRyekn-PnXpq59xH3Nlz-7">
          <mxGeometry x="45" y="80" width="10" height="400" as="geometry" />
        </mxCell>
        <mxCell id="MRyekn-PnXpq59xH3Nlz-9" value="" style="html=1;points=[];perimeter=orthogonalPerimeter;" vertex="1" parent="MRyekn-PnXpq59xH3Nlz-7">
          <mxGeometry x="50" y="230" width="10" height="80" as="geometry" />
        </mxCell>
        <mxCell id="MRyekn-PnXpq59xH3Nlz-10" value="&lt;font style=&quot;vertical-align: inherit;&quot;&gt;&lt;font style=&quot;vertical-align: inherit;&quot;&gt;开始拦截流量&lt;/font&gt;&lt;/font&gt;" style="edgeStyle=orthogonalEdgeStyle;html=1;align=left;spacingLeft=2;endArrow=block;rounded=0;entryX=1;entryY=0;" edge="1" parent="MRyekn-PnXpq59xH3Nlz-7">
          <mxGeometry relative="1" as="geometry">
            <mxPoint x="55" y="170" as="sourcePoint" />
            <Array as="points">
              <mxPoint x="55" y="180" />
              <mxPoint x="85" y="180" />
              <mxPoint x="85" y="230" />
              <mxPoint x="60" y="230" />
            </Array>
            <mxPoint x="60.00000000000023" y="239.9999999999999" as="targetPoint" />
            <mxPoint as="offset" />
          </mxGeometry>
        </mxCell>
        <mxCell id="MRyekn-PnXpq59xH3Nlz-11" value="接口暴露" style="verticalAlign=bottom;endArrow=open;dashed=1;endSize=8;shadow=0;strokeWidth=1;" edge="1" parent="MRyekn-PnXpq59xH3Nlz-7">
          <mxGeometry x="0.046" y="-10" relative="1" as="geometry">
            <mxPoint x="-129" y="345.9999999999998" as="targetPoint" />
            <mxPoint x="229.5" y="345.9999999999998" as="sourcePoint" />
            <mxPoint as="offset" />
          </mxGeometry>
        </mxCell>
        <mxCell id="MRyekn-PnXpq59xH3Nlz-12" value="发送注入命令" style="verticalAlign=bottom;endArrow=block;entryX=0;entryY=0;shadow=0;strokeWidth=1;" edge="1" parent="1">
          <mxGeometry relative="1" as="geometry">
            <mxPoint x="265" y="193.00000000000034" as="sourcePoint" />
            <mxPoint x="435" y="193.00000000000034" as="targetPoint" />
          </mxGeometry>
        </mxCell>
        <mxCell id="MRyekn-PnXpq59xH3Nlz-13" value="DB" style="shape=umlLifeline;perimeter=lifelinePerimeter;container=1;collapsible=0;recursiveResize=0;rounded=0;shadow=0;strokeWidth=1;" vertex="1" parent="1">
          <mxGeometry x="50" y="105" width="100" height="475" as="geometry" />
        </mxCell>
        <mxCell id="MRyekn-PnXpq59xH3Nlz-14" value="" style="points=[];perimeter=orthogonalPerimeter;rounded=0;shadow=0;strokeWidth=1;" vertex="1" parent="MRyekn-PnXpq59xH3Nlz-13">
          <mxGeometry x="45" y="70" width="10" height="400" as="geometry" />
        </mxCell>
        <mxCell id="MRyekn-PnXpq59xH3Nlz-15" value="返回成功" style="verticalAlign=bottom;endArrow=open;dashed=1;endSize=8;exitX=0;exitY=0.95;shadow=0;strokeWidth=1;" edge="1" parent="1">
          <mxGeometry relative="1" as="geometry">
            <mxPoint x="260" y="210.99999999999977" as="targetPoint" />
            <mxPoint x="430" y="210.99999999999977" as="sourcePoint" />
          </mxGeometry>
        </mxCell>
        <mxCell id="MRyekn-PnXpq59xH3Nlz-16" value="下发录制配置" style="verticalAlign=bottom;endArrow=block;entryX=0;entryY=0;shadow=0;strokeWidth=1;" edge="1" parent="1">
          <mxGeometry relative="1" as="geometry">
            <mxPoint x="267" y="246.0000000000001" as="sourcePoint" />
            <mxPoint x="437" y="246.0000000000001" as="targetPoint" />
          </mxGeometry>
        </mxCell>
        <mxCell id="MRyekn-PnXpq59xH3Nlz-17" value="返回成功" style="verticalAlign=bottom;endArrow=open;dashed=1;endSize=8;exitX=0;exitY=0.95;shadow=0;strokeWidth=1;" edge="1" parent="1">
          <mxGeometry relative="1" as="geometry">
            <mxPoint x="260" y="266.9999999999998" as="targetPoint" />
            <mxPoint x="430" y="266.9999999999998" as="sourcePoint" />
          </mxGeometry>
        </mxCell>
        <mxCell id="MRyekn-PnXpq59xH3Nlz-18" value="发送下载命令" style="verticalAlign=bottom;endArrow=block;entryX=0;entryY=0;shadow=0;strokeWidth=1;" edge="1" parent="1">
          <mxGeometry relative="1" as="geometry">
            <mxPoint x="265" y="485" as="sourcePoint" />
            <mxPoint x="435" y="485" as="targetPoint" />
          </mxGeometry>
        </mxCell>
        <mxCell id="MRyekn-PnXpq59xH3Nlz-19" value="下载文件" style="verticalAlign=bottom;endArrow=open;dashed=1;endSize=8;exitX=0;exitY=0.95;shadow=0;strokeWidth=1;" edge="1" parent="1">
          <mxGeometry relative="1" as="geometry">
            <mxPoint x="260" y="514.9999999999998" as="targetPoint" />
            <mxPoint x="430" y="514.9999999999998" as="sourcePoint" />
          </mxGeometry>
        </mxCell>
        <mxCell id="MRyekn-PnXpq59xH3Nlz-20" value="存储" style="verticalAlign=bottom;endArrow=block;shadow=0;strokeWidth=1;exitX=1;exitY=0.75;exitDx=0;exitDy=0;exitPerimeter=0;" edge="1" parent="1">
          <mxGeometry relative="1" as="geometry">
            <mxPoint x="270" y="565" as="sourcePoint" />
            <mxPoint x="610" y="565" as="targetPoint" />
          </mxGeometry>
        </mxCell>
        <mxCell id="MRyekn-PnXpq59xH3Nlz-21" value="http上传流量信息" style="verticalAlign=bottom;endArrow=open;dashed=1;endSize=8;exitX=0;exitY=0.95;shadow=0;strokeWidth=1;" edge="1" parent="1">
          <mxGeometry relative="1" as="geometry">
            <mxPoint x="263" y="344.4999999999998" as="targetPoint" />
            <mxPoint x="433" y="344.4999999999998" as="sourcePoint" />
          </mxGeometry>
        </mxCell>
        <mxCell id="MRyekn-PnXpq59xH3Nlz-22" value="存储" style="verticalAlign=bottom;endArrow=block;shadow=0;strokeWidth=1;exitX=1;exitY=0.75;exitDx=0;exitDy=0;exitPerimeter=0;" edge="1" parent="1">
          <mxGeometry relative="1" as="geometry">
            <mxPoint x="270" y="385" as="sourcePoint" />
            <mxPoint x="610" y="385" as="targetPoint" />
          </mxGeometry>
        </mxCell>
        <mxCell id="MRyekn-PnXpq59xH3Nlz-27" value="" style="endArrow=classic;html=1;rounded=0;" edge="1" parent="1">
          <mxGeometry width="50" height="50" relative="1" as="geometry">
            <mxPoint x="430" y="460" as="sourcePoint" />
            <mxPoint x="480" y="410" as="targetPoint" />
          </mxGeometry>
        </mxCell>
        <mxCell id="MRyekn-PnXpq59xH3Nlz-28" value="" style="endArrow=classic;html=1;rounded=0;" edge="1" parent="1">
          <mxGeometry width="50" height="50" relative="1" as="geometry">
            <mxPoint x="430" y="460" as="sourcePoint" />
            <mxPoint x="480" y="410" as="targetPoint" />
          </mxGeometry>
        </mxCell>
        <mxCell id="MRyekn-PnXpq59xH3Nlz-29" value="" style="endArrow=classic;html=1;rounded=0;entryX=1.5;entryY=0.438;entryDx=0;entryDy=0;entryPerimeter=0;" edge="1" parent="1" source="MRyekn-PnXpq59xH3Nlz-1" target="MRyekn-PnXpq59xH3Nlz-14">
          <mxGeometry width="50" height="50" relative="1" as="geometry">
            <mxPoint x="160" y="400" as="sourcePoint" />
            <mxPoint x="210" y="350" as="targetPoint" />
          </mxGeometry>
        </mxCell>
        <mxCell id="MRyekn-PnXpq59xH3Nlz-32" value="&lt;font style=&quot;vertical-align: inherit;&quot;&gt;&lt;font style=&quot;vertical-align: inherit;&quot;&gt;结构化存储&lt;/font&gt;&lt;/font&gt;" style="text;html=1;strokeColor=none;fillColor=none;align=center;verticalAlign=middle;whiteSpace=wrap;rounded=0;" vertex="1" parent="1">
          <mxGeometry x="140" y="327.5" width="80" height="30" as="geometry" />
        </mxCell>
      </root>
    </mxGraphModel>
  </diagram>
</mxfile>
